<svg id="Layer_1" data-name="Layer 1" xmlns="http://www.w3.org/2000/svg" viewBox="0 0 156.11 34.23"><defs><style>.cls-1{fill:#fff;}</style></defs><path class="cls-1" d="M237.21,17.84h-11v7.6h10.64v4.5H226.18V45H221.4V13.35h15.81Z" transform="translate(-221.4 -11.36)"/><path class="cls-1" d="M247.53,13.35V32.42q0,4.08,1.33,6a7.15,7.15,0,0,0,11.22,0q1.34-1.83,1.33-6V13.35h4.78V33.73A11.38,11.38,0,0,1,263.07,42a12,12,0,0,1-17.2,0,11.38,11.38,0,0,1-3.12-8.24V13.35Z" transform="translate(-221.4 -11.36)"/><path class="cls-1" d="M282.51,17.84V45h-4.78V17.84h-7.28V13.35h19.32v4.49Z" transform="translate(-221.4 -11.36)"/><path class="cls-1" d="M298.82,13.35V32.42q0,4.08,1.33,6a7.15,7.15,0,0,0,11.22,0q1.33-1.83,1.33-6V13.35h4.78V33.73A11.38,11.38,0,0,1,314.36,42a12,12,0,0,1-17.2,0A11.38,11.38,0,0,1,294,33.73V13.35Z" transform="translate(-221.4 -11.36)"/><path class="cls-1" d="M335.79,31.52,345.6,45h-5.85l-9-13h-.86V45h-4.78V13.35h5.6q6.27,0,9.06,2.35a8.67,8.67,0,0,1,3.08,6.94,9,9,0,0,1-1.93,5.78A8.67,8.67,0,0,1,335.79,31.52Zm-5.94-3.63h1.51q6.79,0,6.79-5.19,0-4.86-6.6-4.86h-1.7Z" transform="translate(-221.4 -11.36)"/><path class="cls-1" d="M369,37.32H355.4L351.87,45h-5.15l15.67-33.65L377.51,45h-5.23ZM367,32.83l-4.7-10.77-4.92,10.77Z" transform="translate(-221.4 -11.36)"/></svg>